<svg width="512" height="512" viewBox="0 0 512 512" fill="none" xmlns="http://www.w3.org/2000/svg">
  <defs>
    <linearGradient id="bg" x1="64" y1="52" x2="452" y2="458" gradientUnits="userSpaceOnUse">
      <stop stop-color="#0F141C"/>
      <stop offset="1" stop-color="#05080E"/>
    </linearGradient>
    <linearGradient id="panel" x1="108" y1="108" x2="412" y2="424" gradientUnits="userSpaceOnUse">
      <stop stop-color="#182029"/>
      <stop offset="1" stop-color="#0A1118"/>
    </linearGradient>
    <linearGradient id="page" x1="144" y1="120" x2="390" y2="394" gradientUnits="userSpaceOnUse">
      <stop stop-color="#17242E"/>
      <stop offset="1" stop-color="#0C121A"/>
    </linearGradient>
    <linearGradient id="fold" x1="292" y1="121" x2="390" y2="221" gradientUnits="userSpaceOnUse">
      <stop stop-color="#7992A8"/>
      <stop offset="1" stop-color="#253340"/>
    </linearGradient>
    <linearGradient id="edgeGlow" x1="192" y1="180" x2="348" y2="346" gradientUnits="userSpaceOnUse">
      <stop stop-color="#8DFFFF"/>
      <stop offset="1" stop-color="#30B4FF"/>
    </linearGradient>
    <radialGradient id="nodeA" cx="0" cy="0" r="1" gradientUnits="userSpaceOnUse" gradientTransform="translate(196 206) rotate(90) scale(42)">
      <stop stop-color="#97FFF3"/>
      <stop offset="1" stop-color="#1DB8D9"/>
    </radialGradient>
    <radialGradient id="nodeB" cx="0" cy="0" r="1" gradientUnits="userSpaceOnUse" gradientTransform="translate(336 270) rotate(90) scale(32)">
      <stop stop-color="#77D9FF"/>
      <stop offset="1" stop-color="#1978D4"/>
    </radialGradient>
    <radialGradient id="nodeC" cx="0" cy="0" r="1" gradientUnits="userSpaceOnUse" gradientTransform="translate(214 360) rotate(90) scale(32)">
      <stop stop-color="#7CD6FF"/>
      <stop offset="1" stop-color="#3E58E4"/>
    </radialGradient>
    <radialGradient id="nodeCore" cx="0" cy="0" r="1" gradientUnits="userSpaceOnUse" gradientTransform="translate(265 280) rotate(90) scale(18)">
      <stop stop-color="#8FFFF4"/>
      <stop offset="1" stop-color="#14B8D4"/>
    </radialGradient>
    <filter id="softGlow" x="120" y="128" width="272" height="280" filterUnits="userSpaceOnUse" color-interpolation-filters="sRGB">
      <feGaussianBlur stdDeviation="10"/>
    </filter>
    <clipPath id="pageClip">
      <path d="M144 154C144 132.909 161.091 115.818 182.182 115.818H294.095L389.818 211.541V356C389.818 377.091 372.727 394.182 351.636 394.182H182.182C161.091 394.182 144 377.091 144 356V154Z"/>
    </clipPath>
  </defs>

  <rect width="512" height="512" fill="#04070D"/>
  <rect x="64" y="52" width="384" height="408" rx="106" fill="url(#bg)"/>
  <rect x="64.75" y="52.75" width="382.5" height="406.5" rx="105.25" stroke="#4D5662" stroke-width="1.5"/>

  <rect x="108" y="108" width="296" height="296" rx="46" fill="url(#panel)"/>
  <rect x="108.75" y="108.75" width="294.5" height="294.5" rx="45.25" stroke="#515D6A" stroke-width="1.5"/>

  <path d="M144 154C144 132.909 161.091 115.818 182.182 115.818H294.095L389.818 211.541V356C389.818 377.091 372.727 394.182 351.636 394.182H182.182C161.091 394.182 144 377.091 144 356V154Z" fill="url(#page)"/>
  <path d="M294.095 115.818L389.818 211.541H324.636C307.302 211.541 293.25 197.489 293.25 180.155V115.818H294.095Z" fill="url(#fold)"/>
  <path d="M294.095 115.818L389.818 211.541H324.636C307.302 211.541 293.25 197.489 293.25 180.155V115.818H294.095Z" stroke="#A2EBF0" stroke-opacity="0.55" stroke-width="1.5"/>
  <path d="M144 154C144 132.909 161.091 115.818 182.182 115.818H294.095L389.818 211.541V356C389.818 377.091 372.727 394.182 351.636 394.182H182.182C161.091 394.182 144 377.091 144 356V154Z" stroke="#2D3742" stroke-width="2"/>

  <g clip-path="url(#pageClip)" opacity="0.72">
    <path d="M132 171C164 135 215 129 258 146C307 166 306 217 353 231C378 238 408 236 433 221" stroke="#0D7BC2" stroke-opacity="0.44" stroke-width="1.5"/>
    <path d="M122 194C155 147 217 139 261 162C302 183 308 227 349 246C380 260 408 259 431 248" stroke="#1794DA" stroke-opacity="0.52" stroke-width="1.5"/>
    <path d="M115 224C150 168 222 159 268 186C302 206 307 243 337 261C364 277 395 280 426 273" stroke="#1589D7" stroke-opacity="0.35" stroke-width="1.5"/>
    <path d="M108 257C144 201 220 193 255 217C291 241 285 279 308 300C334 324 374 331 412 320" stroke="#0E6EAF" stroke-opacity="0.3" stroke-width="1.5"/>
    <path d="M112 309C151 276 203 269 238 287C270 304 285 338 326 347C349 352 377 350 403 337" stroke="#0D6EA9" stroke-opacity="0.33" stroke-width="1.5"/>
    <path d="M142 353C178 320 230 311 272 323C311 333 336 366 374 376" stroke="#177ABF" stroke-opacity="0.3" stroke-width="1.5"/>
    <path d="M182 161C153 182 144 220 161 251C174 276 171 305 151 329" stroke="#1794DA" stroke-opacity="0.24" stroke-width="1.5" stroke-dasharray="4 10"/>
    <path d="M305 154C319 184 345 193 362 196" stroke="#1FB7EA" stroke-opacity="0.45" stroke-width="1.5" stroke-dasharray="5 9"/>
    <path d="M325 319C352 329 368 349 370 381" stroke="#23A8E2" stroke-opacity="0.38" stroke-width="1.5" stroke-dasharray="2 12"/>
    <circle cx="266" cy="280" r="18" stroke="#0F86C8" stroke-opacity="0.6" stroke-width="1.5"/>
    <circle cx="266" cy="280" r="31" stroke="#0C6FAF" stroke-opacity="0.42" stroke-width="1.5"/>
    <circle cx="266" cy="280" r="46" stroke="#0A5F93" stroke-opacity="0.28" stroke-width="1.5"/>
  </g>

  <g filter="url(#softGlow)" opacity="0.52">
    <path d="M197 207L215 359L336 270L197 207Z" stroke="#57E7F7" stroke-width="12" stroke-linecap="round" stroke-linejoin="round"/>
  </g>

  <path d="M197 207L215 359L336 270L197 207Z" stroke="url(#edgeGlow)" stroke-width="7" stroke-linecap="round" stroke-linejoin="round"/>

  <circle cx="196" cy="206" r="29" fill="url(#nodeA)"/>
  <circle cx="196" cy="206" r="31" stroke="#D0FBFF" stroke-opacity="0.55" stroke-width="3"/>
  <circle cx="336" cy="270" r="20" fill="url(#nodeB)"/>
  <circle cx="336" cy="270" r="22" stroke="#AFE6FF" stroke-opacity="0.45" stroke-width="3"/>
  <circle cx="214" cy="360" r="20" fill="url(#nodeC)"/>
  <circle cx="214" cy="360" r="22" stroke="#A4D7FF" stroke-opacity="0.5" stroke-width="3"/>
  <circle cx="266" cy="280" r="10" fill="url(#nodeCore)"/>
  <circle cx="266" cy="280" r="12" stroke="#B9FFF9" stroke-opacity="0.4" stroke-width="2"/>
</svg>
